<svg xmlns="http://www.w3.org/2000/svg" width="147" height="43" viewBox="0 0 147 43" fill="none" style="&#10;">
    <path d="M20.2605 41.684V32.5288C20.2605 31.2388 19.9693 30.2608 19.3661 29.595C18.7836 28.9291 17.9724 28.5962 16.9739 28.5962C15.9546 28.5962 15.1018 29.0124 14.4153 29.8239C13.7289 30.6353 13.3961 31.7589 13.3961 33.1738V41.6632H10.1303V32.508C10.1303 31.2179 9.83904 30.24 9.2358 29.5742C8.65336 28.9083 7.84211 28.5754 6.84364 28.5754C5.82438 28.5754 4.97152 28.9916 4.28508 29.8031C3.59863 30.6145 3.24501 31.7381 3.24501 33.153V41.6424H0V25.9953H3.26581V27.6183C3.39062 27.4726 3.57783 27.2854 3.80665 27.0773C4.03546 26.8692 4.51389 26.5779 5.24194 26.2034C5.96999 25.8497 6.71883 25.6624 7.50929 25.6624C8.13333 25.6624 8.73657 25.7456 9.2982 25.9329C9.85984 26.0994 10.3175 26.3282 10.6711 26.5779C11.0039 26.8484 11.3159 27.0981 11.5655 27.3686C11.8152 27.6391 12.0024 27.8472 12.1064 28.0136L12.2728 28.2633C12.3144 28.2009 12.3768 28.1177 12.4808 27.9928C12.5848 27.868 12.7928 27.6599 13.1257 27.3478C13.4585 27.0357 13.8121 26.7652 14.2073 26.5363C14.5817 26.3074 15.1018 26.0994 15.7258 25.9121C16.3499 25.7248 16.9947 25.6416 17.6603 25.6416C19.4909 25.6416 20.9262 26.2242 21.9662 27.3894C23.0063 28.5546 23.5471 30.2608 23.5471 32.508V41.6632H20.2605V41.684Z" fill="white" fill-opacity="0.5"/>
    <path d="M40.6882 41.684H37.4224V40.061C37.3808 40.1026 37.2976 40.165 37.2143 40.2691C37.1103 40.3731 36.9023 40.5188 36.6111 40.7477C36.2991 40.9557 35.9871 41.1638 35.6334 41.3303C35.2798 41.4967 34.843 41.6632 34.3022 41.8088C33.7613 41.9545 33.2413 42.0169 32.7004 42.0169C31.0987 42.0169 29.7883 41.5591 28.7274 40.6228C27.6665 39.6865 27.1465 38.6461 27.1465 37.4393C27.1465 36.1493 27.5625 35.0673 28.3738 34.1934C29.185 33.3195 30.3083 32.7577 31.7228 32.5288L37.4432 31.53C37.4432 30.6978 37.1311 30.0111 36.5279 29.4493C35.9247 28.8875 35.1342 28.5962 34.1773 28.5962C33.3453 28.5962 32.5964 28.7627 31.91 29.1164C31.2444 29.4701 30.7659 29.803 30.5163 30.1568L30.0795 30.7186L27.9577 28.5962C28.0201 28.513 28.1033 28.409 28.2282 28.2633C28.3322 28.1385 28.5818 27.8888 28.977 27.5559C29.3722 27.223 29.7675 26.9108 30.2043 26.6612C30.6411 26.3907 31.2236 26.1618 31.9308 25.9537C32.6588 25.7456 33.3869 25.6416 34.1565 25.6416C36.0703 25.6416 37.6304 26.2034 38.8577 27.3478C40.0849 28.4714 40.6882 29.8863 40.6882 31.53V41.684ZM33.1789 39.0623C34.5102 39.0623 35.5502 38.6669 36.2991 37.8763C37.0479 37.0856 37.4224 35.962 37.4224 34.4847V34.1726L32.3468 34.984C31.7644 35.0881 31.286 35.3378 30.9323 35.7123C30.5787 36.0868 30.3915 36.5446 30.3915 37.1272C30.3915 37.6474 30.6411 38.1051 31.1403 38.5005C31.6396 38.875 32.326 39.0623 33.1789 39.0623Z" fill="white" fill-opacity="0.5"/>
    <path d="M51.9582 25.6623C52.5407 25.6623 53.1231 25.7247 53.6639 25.8704C54.2256 26.016 54.704 26.1825 55.0784 26.3905C55.4737 26.5986 55.8065 26.8067 56.1185 27.0356C56.4305 27.2436 56.6385 27.4309 56.7634 27.5557L56.9922 27.8054V18.7959H60.258V41.6839H56.9922V39.8736C56.8466 40.0193 56.6385 40.2274 56.3681 40.4562C56.0977 40.7059 55.5153 41.018 54.6416 41.4134C53.768 41.8087 52.8527 41.996 51.9374 41.996C49.8573 41.996 48.0684 41.2053 46.5499 39.6031C45.0314 38.0218 44.2617 36.0867 44.2617 33.8187C44.2617 31.5507 45.0314 29.6157 46.5499 28.0343C48.0684 26.453 49.8781 25.6623 51.9582 25.6623ZM48.9628 37.5432C49.9197 38.5628 51.0222 39.083 52.2703 39.083C53.5183 39.083 54.6 38.5628 55.5569 37.5432C56.5137 36.5237 56.9922 35.296 56.9922 33.8395C56.9922 32.383 56.5137 31.1762 55.5569 30.1358C54.6 29.1163 53.4975 28.5961 52.2703 28.5961C51.043 28.5961 49.9405 29.1163 48.9628 30.1358C47.9852 31.1554 47.5275 32.383 47.5275 33.8395C47.5275 35.296 48.006 36.5029 48.9628 37.5432Z" fill="white" fill-opacity="0.5"/>
    <path d="M75.1565 27.8062L73.0348 29.9286C72.9515 29.8453 72.8267 29.7205 72.6603 29.5749C72.4939 29.4292 72.1611 29.2211 71.6411 28.9922C71.121 28.7426 70.601 28.6385 70.0809 28.6385C69.3737 28.6385 68.8329 28.805 68.4168 29.1171C68.0008 29.45 67.7928 29.8245 67.7928 30.2615C67.7928 30.7193 67.98 31.0938 68.3752 31.4059C68.7705 31.718 69.2697 31.9469 69.8521 32.1133C70.4554 32.2798 71.0794 32.4671 71.7659 32.7167C72.4523 32.9664 73.0972 33.2161 73.7004 33.5282C74.3036 33.8195 74.8029 34.2773 75.1981 34.9015C75.5933 35.5257 75.7805 36.254 75.7805 37.1279C75.7805 38.4804 75.2397 39.6248 74.1372 40.5819C73.0556 41.539 71.6203 42.0176 69.8937 42.0176C69.1241 42.0176 68.396 41.9136 67.7096 41.7263C67.0231 41.539 66.4407 41.3101 66.0039 41.0397C65.567 40.7692 65.1718 40.4987 64.839 40.2282C64.5062 39.9577 64.2566 39.7288 64.1109 39.5415L63.8613 39.2294L65.9831 37.1071C66.0871 37.2527 66.2535 37.44 66.4615 37.6689C66.6695 37.8978 67.1063 38.1891 67.7928 38.5428C68.4792 38.8965 69.1865 39.0838 69.9145 39.0838C70.7882 39.0838 71.433 38.8965 71.8699 38.5428C72.3067 38.1891 72.5147 37.7105 72.5147 37.1071C72.5147 36.6493 72.3275 36.2748 71.9323 35.9627C71.537 35.6506 71.0378 35.4217 70.4554 35.2552C69.8521 35.0888 69.2281 34.8807 68.5416 34.6518C67.8552 34.4021 67.2104 34.1524 66.6071 33.8611C66.0039 33.5698 65.5046 33.1121 65.1094 32.4879C64.7142 31.8636 64.527 31.1146 64.527 30.2407C64.527 29.0339 65.047 27.9727 66.1079 27.0572C67.1687 26.1417 68.4792 25.6631 70.0809 25.6631C70.705 25.6631 71.3082 25.7255 71.9115 25.8712C72.4939 26.0168 72.9931 26.1833 73.3468 26.3913C73.7212 26.5994 74.054 26.8075 74.3244 27.0364C74.6157 27.2444 74.8029 27.4317 74.9485 27.5565L75.1565 27.8062Z" fill="white" fill-opacity="0.5"/>
    <path d="M93.9169 34.9847H81.6649C81.8313 36.0875 82.3722 37.0447 83.3082 37.8561C84.2235 38.6676 85.326 39.063 86.5949 39.063C87.5101 39.063 88.363 38.8549 89.1534 38.4387C89.9439 38.0226 90.5055 37.6273 90.8383 37.2319L91.3376 36.6285L93.4593 38.7509C93.3969 38.8341 93.2929 38.9589 93.1681 39.1046C93.0433 39.2502 92.7521 39.5207 92.3152 39.8953C91.8784 40.2698 91.4208 40.5819 90.9215 40.8732C90.4223 41.1645 89.7983 41.4142 89.0078 41.6639C88.2174 41.9136 87.4269 42.0176 86.5949 42.0176C84.3691 42.0176 82.4554 41.2061 80.8329 39.5623C79.2312 37.9394 78.4199 35.9627 78.4199 33.6739C78.4199 31.4683 79.2104 29.5957 80.7705 28.0143C82.3306 26.4538 84.2235 25.6631 86.4284 25.6631C88.6334 25.6631 90.4639 26.3913 91.92 27.8478C93.3761 29.3044 94.1041 31.1354 94.1041 33.341L93.9169 34.9847ZM86.4076 28.4513C85.222 28.4513 84.2443 28.805 83.433 29.4916C82.6218 30.1991 82.081 31.0938 81.8105 32.1966H90.8799C90.6927 31.0938 90.1935 30.1783 89.403 29.4916C88.5918 28.805 87.5933 28.4513 86.4076 28.4513Z" fill="white" fill-opacity="0.5"/>
    <path d="M105.337 41.6847H102.072L95.6855 25.9961H99.1178L103.694 37.4401L108.27 25.9961H111.703L105.337 41.6847Z" fill="white" fill-opacity="0.5"/>
    <path d="M128.862 34.9847H116.61C116.777 36.0875 117.317 37.0447 118.254 37.8561C119.169 38.6676 120.271 39.063 121.54 39.063C122.455 39.063 123.308 38.8549 124.099 38.4387C124.889 38.0226 125.451 37.6273 125.784 37.2319L126.283 36.6285L128.405 38.7509C128.342 38.8341 128.238 38.9589 128.113 39.1046C127.989 39.2502 127.697 39.5207 127.261 39.8953C126.824 40.2698 126.366 40.5819 125.867 40.8732C125.368 41.1645 124.744 41.4142 123.953 41.6639C123.163 41.9136 122.372 42.0176 121.54 42.0176C119.314 42.0176 117.401 41.2061 115.778 39.5623C114.176 37.9394 113.365 35.9627 113.365 33.6739C113.365 31.4683 114.156 29.5957 115.716 28.0143C117.276 26.4538 119.169 25.6631 121.374 25.6631C123.579 25.6631 125.409 26.3913 126.865 27.8478C128.321 29.3044 129.049 31.1354 129.049 33.341L128.862 34.9847ZM121.332 28.4513C120.146 28.4513 119.169 28.805 118.358 29.4916C117.546 30.1991 117.005 31.0938 116.735 32.1966H125.804C125.617 31.0938 125.118 30.1783 124.328 29.4916C123.537 28.805 122.539 28.4513 121.332 28.4513Z" fill="white" fill-opacity="0.5"/>
    <path d="M135.872 25.996V27.619L136.08 27.4109C136.184 27.3069 136.371 27.1612 136.683 26.9323C136.995 26.7243 137.328 26.5162 137.661 26.3497C138.014 26.1833 138.451 26.0168 138.992 25.8712C139.533 25.7255 140.074 25.6631 140.615 25.6631C142.508 25.6631 144.047 26.2873 145.212 27.5357C146.397 28.7842 146.98 30.4488 146.98 32.5503V41.7055H143.714V32.5503C143.714 31.4267 143.36 30.4904 142.632 29.7413C141.904 28.9922 141.031 28.6177 139.97 28.6177C138.722 28.6177 137.723 29.0131 136.995 29.8245C136.246 30.636 135.893 31.7596 135.893 33.1953V41.6847H132.627V25.996H135.872Z" fill="white" fill-opacity="0.5"/>
    <path d="M31.1177 23.0822C32.0942 23.0822 32.8858 22.2903 32.8858 21.3135C32.8858 20.3368 32.0942 19.5449 31.1177 19.5449C30.1412 19.5449 29.3496 20.3368 29.3496 21.3135C29.3496 22.2903 30.1412 23.0822 31.1177 23.0822Z" fill="white" fill-opacity="0.5"/>
    <path d="M37.7544 23.0831C38.7309 23.0831 39.5226 22.2913 39.5226 21.3145C39.5226 20.3377 38.7309 19.5459 37.7544 19.5459C36.7779 19.5459 35.9863 20.3377 35.9863 21.3145C35.9863 22.2913 36.7779 23.0831 37.7544 23.0831Z" fill="white" fill-opacity="0.5"/>
    <path d="M57.2358 10.4452V6.26299C57.2358 5.68038 57.111 5.22262 56.8406 4.93132C56.5702 4.61921 56.2165 4.47356 55.7589 4.47356C55.3013 4.47356 54.906 4.66083 54.594 5.03536C54.282 5.40989 54.1156 5.90926 54.1156 6.57509V10.4452H52.6179V6.26299C52.6179 5.68038 52.4931 5.22262 52.2227 4.93132C51.9523 4.61921 51.5986 4.47356 51.141 4.47356C50.6834 4.47356 50.2881 4.66083 49.9761 5.03536C49.6641 5.40989 49.4977 5.90926 49.4977 6.57509V10.4452H48V3.28755H49.4977V4.03661C49.5601 3.97419 49.6433 3.89096 49.7473 3.78693C49.8513 3.68289 50.0801 3.55805 50.413 3.39159C50.7458 3.22513 51.0994 3.1419 51.453 3.1419C51.7442 3.1419 52.0147 3.18352 52.2643 3.26674C52.5139 3.34997 52.7219 3.45401 52.8883 3.55805C53.0339 3.68289 53.1795 3.78692 53.2835 3.91177C53.3875 4.03661 53.4708 4.14065 53.5332 4.20307L53.6164 4.32791C53.6372 4.30711 53.6788 4.26549 53.7204 4.20307C53.762 4.14065 53.866 4.05742 54.0116 3.91177C54.1572 3.76612 54.3236 3.64127 54.5108 3.53724C54.6772 3.4332 54.906 3.32917 55.1973 3.24594C55.4885 3.16271 55.7797 3.12109 56.0917 3.12109C56.9238 3.12109 57.5894 3.39159 58.0678 3.93258C58.5463 4.47356 58.7751 5.24343 58.7751 6.26299V10.4452H57.2358Z" fill="white" fill-opacity="0.5"/>
    <path d="M66.5523 10.4455H65.0546V9.69648C65.0338 9.71729 64.9922 9.7381 64.9506 9.80052C64.909 9.86294 64.805 9.92536 64.6802 10.0086C64.5346 10.1126 64.389 10.1959 64.2226 10.2791C64.0562 10.3623 63.8689 10.4247 63.6193 10.4872C63.3697 10.5496 63.1409 10.5912 62.8913 10.5912C62.1632 10.5912 61.56 10.3831 61.0816 9.96698C60.6031 9.55083 60.3535 9.05146 60.3535 8.51047C60.3535 7.92787 60.5407 7.42849 60.9151 7.03316C61.2896 6.63782 61.7888 6.38813 62.4337 6.2841L65.0546 5.82634C65.0546 5.45181 64.909 5.1397 64.6386 4.8692C64.3682 4.61952 63.9937 4.47386 63.5569 4.47386C63.1825 4.47386 62.8289 4.55709 62.5168 4.70274C62.2048 4.8692 61.9968 5.01485 61.872 5.18131L61.6848 5.431L60.7071 4.45306C60.7279 4.41144 60.7695 4.36983 60.8319 4.30741C60.8735 4.24498 60.9984 4.14095 61.1648 3.9953C61.352 3.84965 61.5392 3.704 61.7264 3.57915C61.9344 3.45431 62.184 3.35027 62.5168 3.24624C62.8497 3.1422 63.1825 3.10059 63.5361 3.10059C64.4098 3.10059 65.117 3.35027 65.6787 3.87045C66.2403 4.39064 66.5107 5.01485 66.5107 5.78472V10.4455H66.5523ZM63.1201 9.25953C63.7233 9.25953 64.2018 9.07227 64.5346 8.71854C64.8674 8.36482 65.0546 7.84464 65.0546 7.17881V7.03316L62.7457 7.40769C62.4753 7.4493 62.2672 7.57415 62.1008 7.7406C61.9344 7.90706 61.8512 8.11513 61.8512 8.38563C61.8512 8.61451 61.976 8.82258 62.2048 9.00985C62.4336 9.1555 62.7457 9.25953 63.1201 9.25953Z" fill="white" fill-opacity="0.5"/>
    <path d="M71.6919 3.14189C71.9623 3.14189 72.2119 3.18351 72.4823 3.24593C72.732 3.30835 72.9608 3.39158 73.1272 3.49562C73.3144 3.59965 73.46 3.68288 73.6056 3.78692C73.7512 3.89096 73.8552 3.97418 73.8968 4.0158L74.0008 4.11983V0H75.4985V10.4452H74.0008V9.61295C73.9384 9.67537 73.8344 9.77941 73.7096 9.88344C73.5848 9.98748 73.3144 10.1331 72.9192 10.3204C72.5239 10.5077 72.1079 10.5909 71.6919 10.5909C70.7558 10.5909 69.9238 10.2372 69.2373 9.50891C68.5509 8.78066 68.1973 7.90675 68.1973 6.86639C68.1973 5.82603 68.5509 4.95213 69.2373 4.22387C69.9238 3.49562 70.7558 3.14189 71.6919 3.14189ZM70.3398 8.55178C70.7766 9.00954 71.2759 9.25923 71.8375 9.25923C72.3991 9.25923 72.8984 9.03035 73.3352 8.55178C73.772 8.09402 73.98 7.53222 73.98 6.86639C73.98 6.20056 73.772 5.63876 73.3352 5.181C72.8984 4.72325 72.3991 4.47356 71.8375 4.47356C71.2759 4.47356 70.7766 4.70244 70.3398 5.181C69.903 5.63876 69.6742 6.20056 69.6742 6.86639C69.6742 7.53222 69.903 8.09402 70.3398 8.55178Z" fill="white" fill-opacity="0.5"/>
    <path d="M84.3622 7.38658H78.7666C78.8498 7.88595 79.0995 8.32291 79.5155 8.69744C79.9315 9.07197 80.4308 9.25923 81.0132 9.25923C81.4292 9.25923 81.8244 9.1552 82.1781 8.96793C82.5317 8.78067 82.8021 8.5934 82.9477 8.40614L83.1765 8.13564L84.1542 9.11358C84.1334 9.1552 84.071 9.19681 84.0294 9.28004C83.967 9.34246 83.8422 9.46731 83.6342 9.63376C83.4261 9.80022 83.2181 9.94587 83.0101 10.0707C82.7813 10.1956 82.4901 10.3204 82.1365 10.4244C81.7828 10.5285 81.4084 10.5909 81.034 10.5909C80.0147 10.5909 79.1411 10.2164 78.413 9.46731C77.685 8.71824 77.3105 7.82353 77.3105 6.78317C77.3105 5.78442 77.6642 4.91052 78.3922 4.20307C79.0995 3.49562 79.9731 3.12109 80.9716 3.12109C81.9701 3.12109 82.8021 3.45401 83.4678 4.11984C84.1334 4.78567 84.4662 5.61796 84.4662 6.63752L84.3622 7.38658ZM80.93 4.41114C80.3891 4.41114 79.9315 4.5776 79.5779 4.88971C79.2035 5.20182 78.9747 5.61796 78.829 6.11734H82.9685C82.8853 5.61796 82.6565 5.20182 82.2821 4.88971C81.9492 4.55679 81.4916 4.41114 80.93 4.41114Z" fill="white" fill-opacity="0.5"/>
    <path d="M90.5198 0.415894C90.6862 0.582352 90.7694 0.790424 90.7694 1.06092C90.7694 1.33141 90.6862 1.53948 90.5198 1.70594C90.3534 1.8724 90.1453 1.95563 89.8749 1.95563C89.6253 1.95563 89.3965 1.8724 89.2301 1.70594C89.0637 1.53948 88.9805 1.33141 88.9805 1.06092C88.9805 0.790424 89.0637 0.582352 89.2301 0.415894C89.3965 0.249436 89.6045 0.166207 89.8749 0.166207C90.1453 0.1454 90.3534 0.228629 90.5198 0.415894ZM90.6238 3.28729V10.445H89.1261V3.28729H90.6238Z" fill="white" fill-opacity="0.5"/>
    <path d="M94.2835 3.28755V4.03661L94.3875 3.93258C94.4291 3.89096 94.5331 3.80773 94.658 3.7245C94.8036 3.62047 94.9492 3.53724 95.1156 3.45401C95.282 3.37078 95.4692 3.30836 95.7188 3.22513C95.9685 3.16271 96.2181 3.12109 96.4677 3.12109C97.3413 3.12109 98.0278 3.4124 98.5686 3.97419C99.1095 4.53599 99.3799 5.30585 99.3799 6.26299V10.4452H97.8822V6.26299C97.8822 5.7428 97.7158 5.32666 97.3829 4.97294C97.0501 4.61921 96.6549 4.45276 96.1557 4.45276C95.594 4.45276 95.1364 4.64002 94.8036 4.99374C94.4707 5.34747 94.3043 5.86765 94.3043 6.53348V10.4036H92.8066V3.28755H94.2835Z" fill="white" fill-opacity="0.5"/>
</svg>