<svg width="161" height="38" viewBox="0 0 161 38" fill="none" xmlns="http://www.w3.org/2000/svg">
<g clip-path="url(#clip0)">
<path d="M57.7616 16.0338H55.4959L51.3028 10.2762C51.2021 10.1337 51.0717 10.0144 50.9203 9.92638C50.7216 9.83877 50.5048 9.79882 50.2876 9.80977H48.8164V16.0338H46.7566V1.20985H50.9644C51.7861 1.18268 52.6076 1.26603 53.4067 1.45764C54.0242 1.61602 54.6041 1.89339 55.1133 2.27391C55.5469 2.61719 55.886 3.06342 56.0991 3.57118C56.3245 4.10636 56.4348 4.68224 56.4228 5.26202C56.4235 5.75843 56.3389 6.25135 56.1727 6.71963C56.0082 7.16722 55.7641 7.58193 55.4517 7.94403C55.1272 8.31513 54.7386 8.62607 54.3042 8.86232C53.8445 9.12561 53.349 9.32198 52.8329 9.44537C53.098 9.60283 53.3242 9.81697 53.495 10.0721L57.7616 16.0338ZM50.8761 8.36673C51.3996 8.37634 51.9212 8.30252 52.4209 8.14809C52.8384 8.0339 53.2252 7.82984 53.5538 7.55047C53.852 7.30396 54.0844 6.98861 54.2306 6.63217C54.3775 6.25601 54.4475 5.85469 54.4366 5.45151C54.461 5.07301 54.3936 4.69422 54.24 4.34681C54.0864 3.9994 53.8512 3.69346 53.5538 3.45457C52.7748 2.96265 51.8564 2.73263 50.935 2.79865H48.7281V8.36673H50.8761Z" fill="#202022"/>
<path d="M69.061 4.02293L68.605 3.67311L68.0017 3.27955C67.7236 3.13344 67.4331 3.01152 67.1337 2.91515C66.7394 2.78941 66.3266 2.73028 65.9125 2.74023C65.5133 2.73612 65.116 2.79517 64.7355 2.91515C64.4224 3.0261 64.1329 3.19419 63.8822 3.41074C63.6517 3.61033 63.4705 3.85966 63.3526 4.13954C63.2321 4.42571 63.1721 4.73325 63.176 5.04326C63.1632 5.40775 63.2718 5.76629 63.485 6.06359C63.7091 6.34402 63.9834 6.58119 64.2942 6.76325C64.6607 6.96255 65.0449 7.12843 65.4417 7.25884L66.7512 7.69612C67.1925 7.84188 67.6339 8.0168 68.0606 8.20629C68.474 8.38341 68.8564 8.6245 69.1935 8.92052C69.5388 9.21548 69.8193 9.57767 70.0174 9.98458C70.226 10.4728 70.3263 10.9997 70.3116 11.5296C70.3193 12.1469 70.2095 12.7601 69.9879 13.3371C69.7706 13.8848 69.4398 14.3814 69.0169 14.7947C68.5651 15.2271 68.0296 15.5642 67.4427 15.7859C66.7641 16.0303 66.0459 16.1488 65.324 16.1357C64.4195 16.1542 63.5214 15.9802 62.6905 15.6255C61.9192 15.2841 61.2279 14.7877 60.6602 14.1679L61.6459 12.7832L62.9112 13.7015C63.111 13.8409 63.3227 13.9628 63.5438 14.0659C63.8102 14.177 64.0859 14.2648 64.3677 14.3283C64.705 14.408 65.0508 14.4472 65.3976 14.4449C65.8281 14.4496 66.2561 14.3805 66.6629 14.2408C67.0342 14.1523 67.381 13.983 67.6781 13.7452C67.9402 13.5114 68.1462 13.2226 68.2813 12.8998C68.4201 12.5519 68.49 12.1807 68.4873 11.8066C68.5035 11.4144 68.3955 11.0271 68.1783 10.6988C67.9628 10.4065 67.6869 10.1631 67.3691 9.98458C67.0021 9.7795 66.612 9.61805 66.2068 9.50356L64.8827 9.08086C64.4413 8.94967 64.0146 8.77476 63.5732 8.59984C63.1563 8.42302 62.7731 8.17649 62.4404 7.87104C62.092 7.56497 61.8157 7.18679 61.6312 6.76325C61.4108 6.24744 61.3054 5.69058 61.3222 5.13072C61.3288 4.62959 61.4337 4.13452 61.6312 3.67311C61.8343 3.18264 62.1402 2.74047 62.5287 2.37583C62.9487 1.9744 63.4502 1.66631 63.9999 1.47211C64.6005 1.21735 65.2447 1.07881 65.8978 1.06398C66.6712 1.0542 67.4397 1.18767 68.1636 1.45753C68.8391 1.70966 69.455 2.09665 69.9732 2.59447L69.061 4.02293Z" fill="#202022"/>
<path d="M79.6246 1.23898C80.4553 1.2223 81.2837 1.33042 82.0817 1.55965C82.7336 1.73835 83.3402 2.05126 83.8619 2.47795C84.3267 2.86731 84.6816 3.36956 84.8918 3.93556C85.1025 4.54462 85.1972 5.18713 85.1713 5.83046C85.1804 6.48033 85.0552 7.12518 84.8035 7.72536C84.5658 8.28411 84.2036 8.7824 83.7442 9.18297C83.2403 9.6348 82.6499 9.98177 82.0081 10.2033C81.2376 10.444 80.4323 10.5572 79.6246 10.5386H77.2265V16.0338H75.2256V1.23898H79.6246ZM79.6246 8.89145C80.1244 8.89084 80.6209 8.81213 81.0959 8.65823C81.5064 8.52365 81.8862 8.31072 82.2141 8.03146C82.5107 7.76029 82.742 7.42653 82.8908 7.05486C83.0581 6.66686 83.1528 6.252 83.1704 5.83046C83.1926 5.42217 83.1252 5.01397 82.9728 4.63399C82.8204 4.25401 82.5866 3.91129 82.2876 3.62946C81.529 3.04945 80.5801 2.76898 79.6246 2.84235H77.2265V8.89145H79.6246Z" fill="#202022"/>
<path d="M51.1557 22.1557C51.9864 22.1379 52.8149 22.246 53.6127 22.4764C54.2518 22.6614 54.8436 22.9794 55.3487 23.4092C55.803 23.805 56.1517 24.3057 56.3639 24.8669C56.6013 25.4703 56.7163 26.1142 56.7023 26.7618C56.7127 27.407 56.5875 28.0474 56.3345 28.6421C56.1005 29.2029 55.7378 29.7019 55.2752 30.0997C54.7662 30.5307 54.1762 30.8576 53.5391 31.0617C52.7694 31.3073 51.9641 31.4255 51.1557 31.4115H48.7575V36.9359H46.7566V22.1557H51.1557ZM51.1557 29.8082C51.6559 29.8136 52.1534 29.7347 52.6269 29.575C53.04 29.4464 53.4211 29.2328 53.7451 28.9482C54.0417 28.677 54.273 28.3433 54.4219 27.9716C54.5842 27.5787 54.6643 27.1571 54.6573 26.7326C54.6815 26.3241 54.615 25.9153 54.4625 25.535C54.3099 25.1548 54.0751 24.8122 53.7745 24.5316C53.0213 23.94 52.0696 23.6535 51.1115 23.7299H48.7575V29.8082H51.1557Z" fill="#202022"/>
<path d="M72.4007 36.9214H70.3557L70.1497 36.4404L68.6784 32.8838H62.0725L60.6748 36.4404L60.4982 36.9214H58.4385L64.3971 22.1558H66.4421L72.4007 36.9214ZM68.1929 31.4408L65.8536 25.4354C65.8536 25.2459 65.7065 25.0418 65.6329 24.8086C65.5594 24.5754 65.4858 24.313 65.4122 24.0507C65.293 24.5205 65.1456 24.9829 64.9709 25.4354L62.6316 31.4408H68.1929Z" fill="#202022"/>
<path d="M87.4518 36.9212H85.186L80.9194 31.2219C80.8228 31.0722 80.6917 30.9473 80.5369 30.8575C80.34 30.7825 80.1298 30.7478 79.9189 30.7555H78.4477V36.9212H76.5056V22.1556H80.7281C81.551 22.1395 82.3724 22.2327 83.1704 22.4325C83.7867 22.5895 84.3631 22.8725 84.8624 23.2634C85.2998 23.6004 85.644 24.0417 85.8628 24.5461C86.0529 25.089 86.1378 25.6627 86.1129 26.2369C86.1137 26.7333 86.0291 27.2262 85.8628 27.6945C85.6928 28.1395 85.4491 28.5533 85.1419 28.9189C84.804 29.282 84.4121 29.5917 83.9796 29.8372C83.5166 30.0901 83.0219 30.2812 82.5084 30.4057C82.7803 30.5605 83.008 30.7812 83.1704 31.047L87.4518 36.9212ZM80.5663 29.2979C81.0858 29.3297 81.607 29.2805 82.1111 29.1521C82.5211 29.0306 82.9016 28.8273 83.2293 28.5545C83.5253 28.306 83.7573 27.9912 83.906 27.6362C84.0686 27.2587 84.1488 26.8514 84.1414 26.441C84.1652 26.0661 84.099 25.691 83.9481 25.3464C83.7972 25.0018 83.566 24.6975 83.2734 24.4586C82.4983 23.9567 81.5781 23.7211 80.6546 23.7881H78.4477V29.2979H80.5663Z" fill="#202022"/>
<path d="M148.465 36.9212H146.199L142.006 31.2219C141.906 31.0753 141.775 30.9512 141.623 30.8575C141.421 30.7828 141.206 30.7482 140.991 30.7555H139.519V36.9212H137.46V22.1556H141.668C142.49 22.1395 143.312 22.2327 144.11 22.4325C144.731 22.5896 145.312 22.8725 145.817 23.2634C146.246 23.6051 146.584 24.0454 146.802 24.5461C147.024 25.0822 147.135 25.6574 147.126 26.2369C147.127 26.7333 147.042 27.2262 146.876 27.6945C146.711 28.1421 146.467 28.5568 146.155 28.9189C145.817 29.282 145.425 29.5917 144.993 29.8372C144.532 30.0944 144.036 30.2857 143.521 30.4057C143.795 30.5639 144.026 30.7836 144.198 31.047L148.465 36.9212ZM141.579 29.2979C142.077 29.3041 142.573 29.2353 143.051 29.0938C143.465 28.9726 143.85 28.7693 144.183 28.4962C144.471 28.2398 144.701 27.9271 144.86 27.5779C145.011 27.1973 145.086 26.7914 145.081 26.3827C145.107 26.0075 145.042 25.6316 144.891 25.2866C144.74 24.9416 144.507 24.6377 144.213 24.4003C143.438 23.8984 142.518 23.6628 141.594 23.7298H139.387V29.2979H141.579Z" fill="#202022"/>
<path d="M101.134 23.832H96.3086V36.9505H94.293V23.832H89.4673V22.1558H101.134V23.832Z" fill="#202022"/>
<path d="M117.48 22.1558V36.9214H116.009L107.078 25.4354C107.078 25.5957 107.078 25.7706 107.078 25.931C107.078 26.0913 107.078 26.2517 107.078 26.3974V36.9214H105.313V22.1558H106.784L115.612 33.6126V33.0879C115.612 32.9275 115.612 32.7672 115.612 32.6069V22.1558H117.48Z" fill="#202022"/>
<path d="M132.561 35.2889V36.9214H123.365V22.1558H132.546V23.7883H125.381V28.6859H131.266V30.2455H125.381V35.2889H132.561Z" fill="#202022"/>
<path d="M11.0492 0.378906H9.10718V37.6209H11.0492V0.378906Z" fill="#202022"/>
<path d="M34.4635 0.00796187L18.3057 37.2495L20.0899 38.0093L36.2477 0.767777L34.4635 0.00796187Z" fill="#202022"/>
<path d="M1.94206 0.378906H0V37.6209H1.94206V0.378906Z" fill="#202022"/>
<path d="M159.764 24.9396L159.293 24.5898C159.104 24.4537 158.907 24.3273 158.705 24.2108C158.43 24.0513 158.139 23.9194 157.837 23.8173C157.443 23.6915 157.03 23.6324 156.616 23.6424C156.211 23.639 155.808 23.7031 155.424 23.8319C155.109 23.9322 154.819 24.0959 154.571 24.3129C154.343 24.5154 154.163 24.764 154.041 25.0417C153.922 25.3282 153.862 25.6355 153.864 25.9454C153.849 26.3102 153.958 26.6694 154.173 26.9657C154.39 27.2536 154.665 27.4922 154.983 27.6654C155.342 27.868 155.722 28.034 156.116 28.161L157.44 28.5983C157.881 28.7586 158.322 28.9189 158.749 29.1084C159.158 29.2945 159.539 29.5348 159.882 29.8226C160.227 30.1142 160.504 30.4775 160.691 30.8867C160.911 31.3719 161.016 31.9002 161 32.4318C161.007 33.0537 160.897 33.6714 160.676 34.2538C160.464 34.804 160.133 35.3015 159.705 35.7114C159.258 36.1491 158.721 36.4871 158.131 36.7026C157.455 36.9584 156.736 37.0821 156.013 37.067C155.144 37.08 154.281 36.916 153.479 36.585C152.677 36.254 151.951 35.7632 151.349 35.1429L152.334 33.6853L153.585 34.6036C153.792 34.7399 154.008 34.8616 154.232 34.968C154.491 35.0886 154.763 35.1815 155.041 35.245C155.38 35.3189 155.725 35.3531 156.071 35.347C156.506 35.3572 156.939 35.2931 157.351 35.1575C157.704 35.0383 158.03 34.8499 158.308 34.6036C158.567 34.367 158.772 34.0789 158.911 33.7582C159.049 33.4051 159.119 33.0292 159.117 32.6504C159.136 32.2625 159.028 31.8788 158.808 31.5572C158.597 31.2611 158.32 31.0168 157.999 30.843C157.64 30.6291 157.254 30.4625 156.851 30.3474L155.542 29.9393C155.1 29.7935 154.659 29.6332 154.232 29.4437C153.816 29.272 153.433 29.0304 153.099 28.7294C152.754 28.4206 152.478 28.0431 152.29 27.6217C152.07 27.1008 151.964 26.5392 151.981 25.9745C151.981 25.4494 152.088 24.9296 152.295 24.4462C152.503 23.9628 152.806 23.5258 153.188 23.1614C153.612 22.765 154.112 22.4576 154.659 22.2576C155.288 22.0189 155.957 21.905 156.63 21.9224C157.404 21.9126 158.172 22.0461 158.896 22.3159C159.57 22.5645 160.186 22.9464 160.706 23.4383L159.764 24.9396Z" fill="#202022"/>
</g>
<defs>
<clipPath id="clip0">
<rect width="161" height="38" fill="white"/>
</clipPath>
</defs>
</svg>
