<svg width="31" height="15" viewBox="0 0 31 15" fill="none" xmlns="http://www.w3.org/2000/svg">
<path d="M26.1387 5.59721C28.9326 2.14371 28.313 2.07901 29 1H23.646C23.646 1 23.2655 2.20615 23.1494 2.42206C22.121 4.33163 19.8145 7.19682 18.4195 7.48966C17.046 7.77817 17.2283 4.81442 17.313 3.5306C17.3927 2.34062 17.3791 1.92422 17.3408 1.71865C17.2847 1.41829 17.0087 1.19918 16.6775 1.161C15.9946 1.082 14.7555 0.970284 13.368 1.02896L12.1266 1.06658C12.6161 2.06622 12.9467 1.75984 13.127 2.91633C13.3305 4.27031 13.2503 7.56489 11.7898 7.56489C9.44852 7.56489 6.82046 1.14463 6.73682 1H2L2.43341 1.99023C5.92645 9.97418 10.2952 13.672 16.2725 13.9795L17.0503 14L17.1059 13.3103C17.19 12.2452 17.7752 10.712 18.8132 10.712C20.3468 10.712 20.7899 11.1198 21.8013 12.2608C22.7738 13.3549 23.4439 14 25.0132 14H29L28.4315 12.9562C27.5436 11.3287 25.7628 9.93355 25.0674 9.12425C24.8154 8.81956 24.5674 8.33789 24.8241 7.75522C25.034 7.24779 25.659 6.18947 26.1387 5.59721V5.59721Z" stroke="black" stroke-width="1.5"/>
</svg>
