<svg width="12" height="23" viewBox="0 0 12 23" fill="none" xmlns="http://www.w3.org/2000/svg">
<path d="M7.41221 23H4.02645C3.46092 23 3.00089 22.4995 3.00089 21.8843V13.5766H1.02557C0.460037 13.5766 0 13.076 0 12.4609V8.90102C0 8.2858 0.460037 7.78535 1.02557 7.78535H3.00089V6.00269C3.00089 4.23512 3.51109 2.73129 4.47617 1.65404C5.4456 0.571877 6.80039 0 8.39406 0L10.9762 0.00456236C11.5408 0.00561523 12 0.506073 12 1.12024V4.42551C12 5.04073 11.5401 5.54118 10.9748 5.54118L9.23623 5.54189C8.70602 5.54189 8.57101 5.65752 8.54214 5.69297C8.49456 5.75175 8.43794 5.91793 8.43794 6.3768V7.78517H10.8441C11.0252 7.78517 11.2007 7.83378 11.3516 7.92538C11.6769 8.12314 11.8792 8.49708 11.8792 8.9012L11.8779 12.4611C11.8779 13.076 11.4179 13.5764 10.8523 13.5764H8.43794V21.8843C8.43794 22.4995 7.97774 23 7.41221 23ZM4.24034 21.6516H7.19832V12.9729C7.19832 12.5622 7.5056 12.2281 7.88305 12.2281H10.6384L10.6396 9.13371H7.88289C7.50544 9.13371 7.19832 8.7996 7.19832 8.38881V6.3768C7.19832 5.85002 7.24752 5.25095 7.61303 4.80067C8.05468 4.25635 8.75071 4.19353 9.23591 4.19353L10.7605 4.19283V1.35257L8.3931 1.34836C5.83192 1.34836 4.24034 3.1319 4.24034 6.00269V8.38881C4.24034 8.79942 3.93322 9.13371 3.55577 9.13371H1.23945V12.2281H3.55577C3.93322 12.2281 4.24034 12.5622 4.24034 12.9729V21.6516ZM10.9738 1.35292H10.9739H10.9738Z" fill="black"/>
</svg>
